<svg width="1439" height="1439" viewBox="0 0 1439 1439" fill="none" xmlns="http://www.w3.org/2000/svg">
<rect width="1439" height="1439" fill="#020B0D"/>
<path d="M578.756 137.578C599.795 123.153 628.429 137.939 628.848 163.444L633.115 423.359C633.511 425.634 634.218 427.803 635.19 429.819C635.571 430.61 635.994 431.377 636.454 432.118C636.686 432.491 636.927 432.858 637.177 433.218C637.271 433.353 637.367 433.488 637.464 433.621C637.597 433.805 637.734 433.986 637.872 434.166C638.223 434.622 638.59 435.067 638.971 435.497C639.628 436.238 640.329 436.94 641.069 437.598C642.035 438.457 643.069 439.243 644.162 439.944C644.753 440.323 645.362 440.676 645.986 441.004C646.157 441.094 646.332 441.183 646.506 441.27C646.679 441.355 646.853 441.44 647.028 441.521C647.226 441.614 647.427 441.705 647.628 441.793C647.762 441.851 647.897 441.909 648.031 441.965C648.298 442.075 648.567 442.182 648.838 442.283C649.768 442.631 650.724 442.925 651.702 443.16L784.298 443.16C793.846 440.645 801.136 432.57 802.5 422.606L806.751 163.749C807.171 138.181 835.929 123.41 856.956 137.96L1165.94 351.766C1173.16 356.761 1178.01 364.505 1179.35 373.181L1215.63 607.366L1220.86 623.214C1222.68 628.736 1223.81 634.464 1224.21 640.265L1243.93 922.885C1244.81 935.515 1242.25 948.148 1236.52 959.437L1131.2 1166.96C1122.59 1183.92 1107.46 1196.64 1089.28 1202.21L740.149 1309.18C726.785 1313.28 712.5 1313.28 699.136 1309.18L349.999 1202.21C331.821 1196.64 316.689 1183.92 308.084 1166.96L202.498 958.919C196.935 947.957 194.356 935.722 195.022 923.446L210.225 643.222C210.645 635.483 212.347 627.867 215.262 620.686L218.006 613.925L252.956 373.458C254.241 364.62 259.161 356.72 266.527 351.669L578.756 137.578ZM576.089 279.546C577.917 252.946 548.319 235.907 526.235 250.847L344.457 373.813C337.876 378.265 333.186 385.006 331.301 392.725L306.71 493.39C301.188 515.998 320.881 536.754 343.748 532.426L537.265 495.793C551.567 493.086 562.239 481.067 563.238 466.546L576.089 279.546ZM913.032 250.963C890.951 235.989 861.318 253.024 863.148 279.642L875.993 466.546C876.992 481.067 887.665 493.085 901.966 495.793L1095.29 532.39C1118.21 536.728 1137.92 515.88 1132.3 493.243L1107.34 392.63C1105.44 384.969 1100.78 378.28 1094.25 373.85L913.032 250.963Z" fill="#E5F9FF"/>
<rect x="409.191" y="908.529" width="91.4149" height="28.5689" fill="#020B0D"/>
<rect x="363.482" y="965.667" width="91.4149" height="28.5689" fill="#020B0D"/>
<rect x="407.286" y="1022.81" width="91.4149" height="28.5689" fill="#020B0D"/>
<rect x="938.635" y="908.529" width="91.4149" height="28.5689" fill="#020B0D"/>
<rect x="984.342" y="965.667" width="91.4149" height="28.5689" fill="#020B0D"/>
<rect x="938.635" y="1022.81" width="91.4149" height="28.5689" fill="#020B0D"/>
<path d="M720.486 946.88L768.969 995.363L748.767 1015.56L720.485 987.282L692.203 1015.56L672.002 995.364L720.486 946.88Z" fill="#020B0D"/>
<path d="M627.515 843.773C624.182 875.878 597.044 900.911 564.06 900.911C531.075 900.911 503.937 875.878 500.604 843.773H627.515Z" fill="#020B0D"/>
<path d="M938.635 843.807C938.635 879.045 910.071 907.611 874.835 907.611C839.599 907.611 811.035 879.045 811.035 843.807C811.035 843.796 811.035 843.784 811.035 843.773H938.635C938.635 843.784 938.635 843.796 938.635 843.807Z" fill="#020B0D"/>
</svg>
